<?xml version="1.0" encoding="UTF-8" standalone="no"?>
<!-- Created with Inkscape (http://www.inkscape.org/) -->

<svg
   xmlns:dc="http://purl.org/dc/elements/1.1/"
   xmlns:cc="http://creativecommons.org/ns#"
   xmlns:rdf="http://www.w3.org/1999/02/22-rdf-syntax-ns#"
   xmlns:svg="http://www.w3.org/2000/svg"
   xmlns="http://www.w3.org/2000/svg"
   xmlns:sodipodi="http://sodipodi.sourceforge.net/DTD/sodipodi-0.dtd"
   xmlns:inkscape="http://www.inkscape.org/namespaces/inkscape"
   width="200mm"
   height="200mm"
   viewBox="0 0 200 200"
   version="1.1"
   id="svg8"
   inkscape:version="0.92.4 (5da689c313, 2019-01-14)"
   sodipodi:docname="spiral-mini.svg">
  <defs
     id="defs2">
    <marker
       inkscape:stockid="Arrow1Lstart"
       orient="auto"
       refY="0.0"
       refX="0.0"
       id="marker1109"
       style="overflow:visible"
       inkscape:isstock="true">
      <path
         id="path1107"
         d="M 0.0,0.0 L 5.0,-5.0 L -12.5,0.0 L 5.0,5.0 L 0.0,0.0 z "
         style="fill-rule:evenodd;stroke:#000000;stroke-width:1pt;stroke-opacity:1;fill:#000000;fill-opacity:1"
         transform="scale(0.8) translate(12.5,0)" />
    </marker>
    <marker
       inkscape:stockid="Arrow1Lstart"
       orient="auto"
       refY="0.0"
       refX="0.0"
       id="Arrow1Lstart"
       style="overflow:visible"
       inkscape:isstock="true">
      <path
         id="path825"
         d="M 0.0,0.0 L 5.0,-5.0 L -12.5,0.0 L 5.0,5.0 L 0.0,0.0 z "
         style="fill-rule:evenodd;stroke:#000000;stroke-width:1pt;stroke-opacity:1;fill:#000000;fill-opacity:1"
         transform="scale(0.8) translate(12.5,0)" />
    </marker>
  </defs>
  <sodipodi:namedview
     id="base"
     pagecolor="#ffffff"
     bordercolor="#666666"
     borderopacity="1.0"
     inkscape:pageopacity="0.0"
     inkscape:pageshadow="2"
     inkscape:zoom="0.49497475"
     inkscape:cx="89.358848"
     inkscape:cy="328.90741"
     inkscape:document-units="mm"
     inkscape:current-layer="layer1"
     showgrid="false"
     inkscape:window-width="1600"
     inkscape:window-height="882"
     inkscape:window-x="1366"
     inkscape:window-y="0"
     inkscape:window-maximized="1" />
  <metadata
     id="metadata5">
    <rdf:RDF>
      <cc:Work
         rdf:about="">
        <dc:format>image/svg+xml</dc:format>
        <dc:type
           rdf:resource="http://purl.org/dc/dcmitype/StillImage" />
        <dc:title></dc:title>
      </cc:Work>
    </rdf:RDF>
  </metadata>
  <g
     inkscape:label="Layer 1"
     inkscape:groupmode="layer"
     id="layer1"
     transform="translate(0,-97)">
    <path
       sodipodi:type="spiral"
       style="fill:none;fill-rule:evenodd;stroke:#3e3e3e;stroke-width:8.18462276;stroke-linecap:round;stroke-miterlimit:4.0999999;stroke-dasharray:none;stroke-opacity:1"
       id="path821"
       sodipodi:cx="95.49424"
       sodipodi:cy="201.48407"
       sodipodi:expansion="0.99000001"
       sodipodi:revolution="5.5296602"
       sodipodi:radius="100.28471"
       sodipodi:argument="-34.026966"
       sodipodi:t0="0.0195489"
       d="m 94.773924,199.5764 c 0.797966,-3.25692 5.296476,-2.15145 6.964616,-0.45011 3.77946,3.85468 1.70644,10.10499 -2.261624,12.90543 -6.350176,4.4816 -15.032436,1.32657 -18.815475,-4.94695 -5.270984,-8.74102 -0.965434,-19.99089 7.618846,-24.706 11.096647,-6.09508 24.957133,-0.61456 30.582043,10.28176 6.93558,13.4353 0.26977,29.92403 -12.93795,36.44654 -15.763811,7.78481 -34.888905,-0.0711 -42.301406,-15.58876 -8.639081,-18.08542 0.409285,-39.85072 18.235089,-48.14805 20.401877,-9.4964 44.809067,0.7455 53.987477,20.8776 10.35565,22.71427 -1.08021,49.76386 -23.51676,59.82051 -25.023278,11.21611 -54.71512,-1.41376 -65.647784,-26.15295 -12.077333,-27.32944 1.746359,-59.66298 28.786495,-71.46983 29.633079,-12.93903 64.607549,2.07816 77.287069,31.41761 13.801,31.93451 -2.4093,69.54899 -34.04652,83.09988 -34.233944,14.66311 -74.487431,-2.73986 -88.908573,-36.67338 -15.525261,-36.53156 3.069916,-79.42302 39.298351,-94.71344 38.827512,-16.38737 84.355882,3.39953 100.514692,41.92156 17.2494,41.12192 -3.72874,89.28614 -44.54311,106.31258 -43.414888,18.11129 -94.213916,-4.05761 -112.107258,-47.16311 -18.9730391,-45.70653 4.386144,-99.13932 49.781647,-117.89892 47.996891,-19.83462 104.062441,4.71438 123.687701,52.39879 13.72598,33.35066 7.52692,72.43632 -15.33891,100.23011" />
  </g>
</svg>
